PathFileType	4	(X/Y/Z)	/Users/visionmauri/Downloads/Videos/OAW09-top_Sports2D/OAW09-top_Sports2D_px_person00.trc
DataRate	CameraRate	NumFrames	NumMarkers	Units	OrigDataRate	OrigDataStartFrame	OrigNumFrames
30.0	30.0	12	22	m	30.0	0	2065
Frame#	Time	Hip			RHip			RKnee			RAnkle			RBigToe			RSmallToe			RHeel			LHip			LKnee			LAnkle			LBigToe			LSmallToe			LHeel			Neck			Head			Nose			RShoulder			RElbow			RWrist			LShoulder			LElbow			LWrist			
		X1	Y1	Z1	X2	Y2	Z2	X3	Y3	Z3	X4	Y4	Z4	X5	Y5	Z5	X6	Y6	Z6	X7	Y7	Z7	X8	Y8	Z8	X9	Y9	Z9	X10	Y10	Z10	X11	Y11	Z11	X12	Y12	Z12	X13	Y13	Z13	X14	Y14	Z14	X15	Y15	Z15	X16	Y16	Z16	X17	Y17	Z17	X18	Y18	Z18	X19	Y19	Z19	X20	Y20	Z20	X21	Y21	Z21	X22	Y22	Z22
0	0.0	498.7499272599312	586.3893338778212	0.0	487.5269352798416	588.2597603127563	0.0	488.1504744032331	638.1397509622567	0.0	490.02097218266	681.1612985749994	0.0	486.9035607787963	694.8783554149987	0.0	480.0450377853661	693.631353895026	0.0	491.2680038586225	688.6432918146987	0.0	511.2199718873025	587.6363418904996	0.0	509.9729880561919	638.1398354870787	0.0	511.220045529856	680.5378636802052	0.0	509.3494933958585	696.1253432156736	0.0	516.2080897021594	694.878355352193	0.0	510.5965612033193	688.0198576538187	0.0	498.12647616760137	518.4277485000131	0.0	498.75007950442944	484.13529140846214	0.0	498.12659451125717	507.2047871788762	0.0	474.43354638913587	525.2862385110014	0.0	467.5749548733194	563.9433274302555	0.0	468.822047742256	592.6243604267537	0.0	521.8194913398964	525.9097425283858	0.0	529.9250246915769	563.9432649906449	0.0	528.6780253950045	593.2477864227927	0.0
1	0.03334948320413436	498.7352988503967	586.34471616832	0.0	487.64579183162755	588.1601367094588	0.0	488.0109084319118	638.0696924632138	0.0	489.86958242678793	681.0183510739176	0.0	486.307908347833	694.9139202426192	0.0	480.03486133350094	693.6414903310967	0.0	491.3731574030517	688.5979955396333	0.0	511.14847655192875	587.5093398815878	0.0	509.92482105751725	637.8675842969118	0.0	511.1317523386525	680.59540155397	0.0	509.50790715671013	695.9329265034852	0.0	516.2061525436151	694.6709736776185	0.0	510.08738540261214	687.9363332194325	0.0	497.92255972417604	518.3917577142996	0.0	498.3506744441176	483.55563099630876	0.0	497.92435157501933	506.5698204945339	0.0	474.3155763235311	525.2974192119582	0.0	467.63868711126884	563.5505283596927	0.0	468.63817347271686	592.4074751364125	0.0	521.7079739015846	525.5193893447273	0.0	530.0996820193114	563.6170965555154	0.0	528.6505882848675	593.1081468972844	0.0
2	0.06669896640826872	498.7119586205681	586.3436062701584	0.0	487.7726313605854	587.6955750166447	0.0	487.91320832677724	637.8226668203077	0.0	489.67739574744576	680.8035758007736	0.0	485.7182527773957	694.9754330337008	0.0	480.00845406751375	693.6591514619613	0.0	491.644451537803	688.4771090838781	0.0	511.00938880970085	587.0302227724973	0.0	509.87438715235095	637.5427293521982	0.0	511.05463768985254	680.6788768678784	0.0	509.7621840850337	695.7593592911632	0.0	516.2162568183109	694.46815319583	0.0	509.6165004003031	687.8943118240924	0.0	497.72917780862815	518.3598531106117	0.0	497.8538704995357	482.89352785395204	0.0	497.7315612520127	506.0637545967768	0.0	474.0958627418279	525.2370088584463	0.0	467.7148050573839	563.1074688505657	0.0	468.53980123258174	592.4719199181598	0.0	521.6299103803267	525.1452514487786	0.0	530.2687315350366	563.3723513172893	0.0	528.6425619040622	592.9869074282191	0.0
3	0.10004844961240308	498.7377798262066	586.3556768885038	0.0	487.7933775283228	587.0532537945144	0.0	487.939530491045	637.4573016344793	0.0	489.5661971752615	680.5783277095732	0.0	485.3699978706798	695.0034153166039	0.0	479.95175925126796	693.6519234960214	0.0	492.0543210963023	688.3177855435152	0.0	510.84799329998435	586.4455791907146	0.0	509.82644257003835	637.2721776936273	0.0	511.0336960215728	680.757041570202	0.0	510.0030965174073	695.6921103743733	0.0	516.2461670174345	694.3679237834771	0.0	509.380684141665	687.9507147457455	0.0	497.58843196001857	518.3366282869238	0.0	497.383771881969	482.5440881633021	0.0	497.5848667092848	505.95618731923474	0.0	473.877242335635	525.1557141634036	0.0	467.7478961867387	562.8540594320189	0.0	468.6268732193318	592.8820477764216	0.0	521.5750730448697	524.9294734255003	0.0	530.3563387436504	563.26065180751	0.0	528.6479980939887	592.8538534829974	0.0
4	0.13339793281653745	498.9010695665164	586.2083768928339	0.0	487.66853437616464	586.745713200924	0.0	488.1003560451079	637.1716212249578	0.0	489.611860924172	680.5075350918537	0.0	485.3338408960506	694.9135619097002	0.0	479.8741526250369	693.5679464025728	0.0	492.36630130393667	688.2678460792714	0.0	510.7646131646332	586.2829328133544	0.0	509.84439246835643	637.1314282015537	0.0	511.0213107476685	680.795586262486	0.0	510.0664999697909	695.7471985857147	0.0	516.2783586177661	694.415893173578	0.0	509.397089374852	688.0798043884728	0.0	497.4965673528393	518.283581225811	0.0	497.1429429430996	482.68020238723193	0.0	497.47814641401834	506.12196271910483	0.0	473.8305319557014	525.1224642007887	0.0	467.7096889267547	562.9139325775039	0.0	468.8328734390022	593.1931550222805	0.0	521.4980339080631	524.8547429500767	0.0	530.2977880221807	563.0612845480215	0.0	528.7069906169255	592.6347313844739	0.0
5	0.1667474160206718	499.14825539301194	585.8207887026026	0.0	487.53999414048064	586.8674390655832	0.0	488.2636843099202	637.0603575691514	0.0	489.68560468128845	680.665107453564	0.0	485.43662258571464	694.7485908393195	0.0	479.81742954743413	693.4355722065349	0.0	492.358513805006	688.3215697058012	0.0	510.79651172062665	586.4816352686697	0.0	509.9494864131624	637.086863204884	0.0	510.9681654014008	680.8362887851296	0.0	510.00637886036026	695.846751759155	0.0	516.2822629903619	694.5356938916962	0.0	509.4580502337418	688.178086992067	0.0	497.4161292018519	518.1507730960924	0.0	497.1774204467321	482.7998135056849	0.0	497.3995379137242	506.0745100662241	0.0	473.9245538689525	525.0967452741719	0.0	467.6550060880793	563.0639688820082	0.0	468.97997389745814	592.9414190130326	0.0	521.4181025804098	524.7808821419851	0.0	530.1197074567258	562.610269536388	0.0	528.8605398756242	592.3792331407535	0.0
6	0.20009689922480617	499.2631012567825	585.4697259069515	0.0	487.46018108862626	587.0504793431567	0.0	488.30185294834	637.0729416603532	0.0	489.6764807670513	680.866363308008	0.0	485.55324061057246	694.6251222126394	0.0	479.80193382583604	693.3486818198653	0.0	492.0931223666217	688.2697081432111	0.0	510.8734159121141	586.5206058217944	0.0	510.0097617727463	637.0951106998571	0.0	510.97604775681174	680.9339841339229	0.0	510.05682883255395	695.9206690023238	0.0	516.2714781504932	694.6150848160192	0.0	509.44197784624157	688.1988233150282	0.0	497.3105547842849	517.9792860844943	0.0	497.33071181092	482.55257671991575	0.0	497.37321081138685	505.7250107941712	0.0	473.970433463221	525.0748963027489	0.0	467.6388052607414	563.1168885374784	0.0	469.02231594485005	592.3636755207898	0.0	521.3961599136369	524.7095903326548	0.0	529.9833859831773	562.2105886003127	0.0	529.022865722622	592.2434186502117	0.0
7	0.23344638242894053	499.15680040024375	585.4170066846979	0.0	487.3485522839793	587.0599493096294	0.0	488.2498284462133	637.0953523766619	0.0	489.6344114635181	680.861473380853	0.0	485.63162942946013	694.553184333226	0.0	479.8003343602338	693.3184364464116	0.0	491.87251579592487	688.0790702542007	0.0	510.91781972745014	586.3062607825287	0.0	510.00391128771605	637.0807687612065	0.0	511.10083372617265	681.0460568102111	0.0	510.2586075468877	695.9262737296107	0.0	516.279554536587	694.5910359209852	0.0	509.43619319565613	688.1738839072807	0.0	497.21087296780104	517.8520130862638	0.0	497.45814610586245	482.2443251570097	0.0	497.4138088596021	505.3480118751473	0.0	473.9050996026761	525.1445984801767	0.0	467.6647766981973	563.1188830646138	0.0	469.01946400905746	592.0596841974838	0.0	521.4303867161583	524.6967820667552	0.0	530.057280656912	562.1764311373861	0.0	529.1024644248989	592.2791627564287	0.0
8	0.2667958656330749	499.0558378777893	585.4100969266649	0.0	487.3133763411945	586.9497283334504	0.0	488.21002756700193	637.0604956814136	0.0	489.62695200724625	680.6828499460357	0.0	485.5900477799306	694.4991206161844	0.0	479.7742267016533	693.2890204323705	0.0	491.8665190937433	687.997054491925	0.0	510.9841095422421	586.170067710989	0.0	510.1397961211146	636.9683246728184	0.0	511.2027675240529	681.0826961767948	0.0	510.35089282003753	695.8733576450695	0.0	516.2678915091144	694.5150584923591	0.0	509.5436151159237	688.1350977904971	0.0	497.2698314382072	517.7622187233143	0.0	497.5167513873581	482.13946030440053	0.0	497.47667741971645	504.9807329531503	0.0	473.83860975142653	525.2843204954958	0.0	467.70987458745003	563.0825285726921	0.0	468.9673972248126	592.1371604864905	0.0	521.4973974024988	524.7141778746454	0.0	530.2800258218176	562.3614377406114	0.0	529.1306225246321	592.4015370662781	0.0
9	0.3001453488372092	499.20470839650613	585.106821543019	0.0	487.52634419417956	586.76648272722	0.0	488.19522473326583	636.9916823486797	0.0	489.69190736580873	680.5539632212143	0.0	485.3547539179341	694.5002244324446	0.0	479.7048167317066	693.2667030585782	0.0	491.94503870328845	688.1921172639836	0.0	511.1130470901452	586.150867507656	0.0	510.46600710271457	636.7896945052212	0.0	511.14373663995593	681.0379315778891	0.0	510.1876335503607	695.8266816991026	0.0	516.1891420852612	694.4993271440655	0.0	509.66418407550367	688.1026539962669	0.0	497.50459733725376	517.665144451818	0.0	497.4418928532595	482.0547207878208	0.0	497.4871337519966	504.6843003959545	0.0	473.85286154292265	525.373238318866	0.0	467.74958210133605	562.8734374856513	0.0	468.84919389365064	592.1575454683583	0.0	521.6170833490191	524.7065389977889	0.0	530.4477479167593	562.4486868555751	0.0	529.1491533710421	592.4633775242406	0.0
10	0.3334948320413436	499.47478422231194	584.7231125657706	0.0	487.8148291848967	586.4506545006475	0.0	488.14265031623404	636.9083435060284	0.0	489.8650977059993	680.565056526206	0.0	485.0094417452619	694.5723056549677	0.0	479.6617266531696	693.2881711847905	0.0	491.95697808550415	688.5055464687242	0.0	511.1832686511144	585.9906167760716	0.0	510.7485013742163	636.651089584017	0.0	510.9721625234296	680.9995390845497	0.0	509.97173447223537	695.8163420674631	0.0	516.1712598522422	694.5701085474324	0.0	509.68382713201265	688.1014552586549	0.0	497.6544976173924	517.5812895463494	0.0	497.29054737564127	481.89354788687154	0.0	497.4905314043073	504.8101297387506	0.0	473.94495254883253	525.3741998146288	0.0	467.754762566249	562.5325877769383	0.0	468.76928836988424	591.90734760068	0.0	521.7804617932745	524.6727379900582	0.0	530.4905812136595	562.3689955514143	0.0	529.1551662930979	592.3672779207516	0.0
11	0.366844315245478	499.5674150323503	584.6440171033332	0.0	487.86427870202266	586.0602813637286	0.0	488.03409544757307	636.8732771395829	0.0	490.0833199343682	680.6958913521966	0.0	484.75153654269457	694.6601719859376	0.0	479.74449241106356	693.3341309151908	0.0	491.9281899751926	688.6791002828697	0.0	511.1619069993166	585.7072661190899	0.0	510.8068643147785	636.638787272266	0.0	510.8197294672023	681.0277962185401	0.0	509.97352496850607	695.8260247656237	0.0	516.4034560898806	694.6587121719789	0.0	509.65998991546195	688.1328459104994	0.0	497.6183704831378	517.5452481867335	0.0	497.34872428016246	481.9069155450601	0.0	497.6249124466905	505.39224530152734	0.0	474.0836795700772	525.3220213206573	0.0	467.70860252131683	562.3831542396359	0.0	468.81675430972916	591.7306828091158	0.0	521.9151428776221	524.6850692294242	0.0	530.4791670141482	562.2967546596103	0.0	529.1583253691433	592.1827599981547	0.0
